<?xml version="1.0" encoding="utf-8"?>
<!-- Generator: Adobe Illustrator 16.0.0, SVG Export Plug-In . SVG Version: 6.00 Build 0)  -->
<!DOCTYPE svg PUBLIC "-//W3C//DTD SVG 1.1//EN" "http://www.w3.org/Graphics/SVG/1.1/DTD/svg11.dtd">
<svg version="1.1" id="Layer_1" xmlns="http://www.w3.org/2000/svg" xmlns:xlink="http://www.w3.org/1999/xlink" x="0px" y="0px"
	 width="400px" height="400px" viewBox="0 0 400 400" enable-background="new 0 0 400 400" xml:space="preserve">
<path fill="#FFC900" d="M-612.018,153.762c-2.947-27.075-15.129-52.308-34.277-71.648c-27.035-26.768-64.67-38.809-102.225-33.641
	c-37.454,5.155-70.837,29.614-88.293,62.932c-17.334,33.079-17.559,72.785-1.944,106.495c15.884,34.293,48.987,59.29,85.986,66.182
	c37.054,6.9,75.396-4.396,103.152-29.761C-621.98,229.065-607.978,190.874-612.018,153.762z M-626.261,189.488
	c-7.762,35.951-34.514,66.004-69.186,78.152c-33.737,11.818-72.475,5.699-100.749-16.268
	c-29.193-22.683-44.379-58.805-41.085-95.473c3.294-36.688,26.876-69.162,59.546-85.473c31.99-15.971,71-13.805,101.618,4.204
	c7.687,4.522,14.638,10.068,20.969,16.336C-629.61,116.76-618.593,153.962-626.261,189.488z"/>
<path fill="#FFC900" d="M-508.074,357.011c-0.677-2.923-2.83-5.041-4.859-7.072c-13.538-13.544-27.073-27.088-40.608-40.631
	c-17.927-17.936-35.851-35.868-53.774-53.802c-2.412-2.413-6.442-2.411-8.853,0c-9.034,9.031-18.064,18.064-27.098,27.098
	c-2.415,2.413-2.41,6.439,0,8.854c27.55,27.597,55.1,55.192,82.65,82.79c4.172,4.18,8.345,8.359,12.519,12.538
	c0.222,0.258,0.465,0.511,0.75,0.755c0.495,0.493,1.013,0.873,1.541,1.16c6.261,4.245,13.042,2.575,18.415-2.8
	c4.136-4.137,8.271-8.272,12.408-12.407C-510.277,368.784-506.379,364.327-508.074,357.011z M-527.938,368.778
	c-1.062,1.062-9.579,10.465-10.529,9.938c-0.01-0.013-0.018-0.021-0.027-0.029c-27.55-27.598-55.126-55.194-82.677-82.792
	c-2.949-2.954-5.795-5.91-8.752-8.864c6.167-6.069,12.114-12.134,18.118-18.011c26.113,25.967,52.229,52.121,78.342,78.25
	c4.414,4.415,8.828,8.753,13.242,13.168C-519.497,361.161-527.049,367.892-527.938,368.778z"/>
<path fill="#FFC900" d="M-620.682,269.267c-8.768-8.768-17.535-17.536-26.303-26.305c-5.714-5.714-14.567,3.141-8.854,8.854
	c8.768,8.768,17.536,17.536,26.304,26.305C-623.82,283.834-614.968,274.98-620.682,269.267L-620.682,269.267z"/>
<path fill="#FFC900" d="M-691,115c0,0,0,71.119,0,106.602c0,0.064,0-0.602,0-0.602c0,9,13,9,13,0c0-35,0-70.176,0-105.658
	c0-0.062,0-0.342,0-0.342C-678,108-691,108-691,115C-691,115-691,108-691,115z"/>
<path fill="#FFC900" d="M-723,164c0,0,0,38,0,57c0,9,13,9,13,0c0-19,0-38,0-57C-710,155-723,155-723,164C-723,164-723,155-723,164z"
	/>
<path fill="#FFC900" d="M-755,148c0,0,0,49,0,73c0,9,12,9,12,0c0-24,0-50,0-73C-743,138-755,138-755,148C-755,148-755,138-755,148z"
	/>
<path fill="#FFC900" d="M-787,185c0,0,0,25,0,36c0,9,13,9,13,0c0-11,0-24,0-36C-774,177-787,177-787,185C-787,185-787,177-787,185z"
	/>
<path fill="#FFC900" d="M-1399,285.214c0-20.29,0-40.582,0-60.873c0-38.468,0-76.937,0-115.406
	c0-16.048-11.147-29.684-26.506-33.967c-4.466-1.244-9.282-0.967-13.851-0.967c-13.797,0-27.595,0-41.394,0
	c-48.741,0-97.482,0-146.223,0c-34.474,0-68.949,0-103.422,0c-8.253,0-16.597,1.551-23.427,6.458
	c-9.883,7.103-15.178,17.954-15.178,29.933c0,15.703,0,31.405,0,47.109c0,43.917,0,87.837,0,131.753
	c0,6.414,0.444,13.107,2.938,19.213c5.496,13.455,19.098,22.533,33.59,22.533c9.81,0,19.62,0,29.428,0c46.511,0,93.022,0,139.533,0
	c39.883,0,79.767,0,119.65,0c3.052,0,6.482,0,8.83,0c1.051,0,1.97-0.484,2.765-0.811c18.167-1.525,32.675-16.346,33.018-34.934
	C-1399.188,291.959-1399,288.511-1399,285.214z M-1413,134.636c0,23.718,0,47.436,0,71.153c0,22.904,0,45.811,0,68.714
	c0,6.069,0,12.138,0,18.205c0,9.308-2.938,17.312-11.354,22.1c-3.301,1.879-6.838,2.688-10.6,2.754
	c-0.792,0.015-1.337,0.438-1.974,0.438c-26.795,0-54.331,0-81.641,0c-49.876,0-99.752,0-149.628,0c-17.227,0-34.454,0-51.681,0
	c-3.898,0-7.795,0-11.693,0c-9.706,0-17.525-4.854-21.893-13.668c-2.337-4.721-1.538-10.56-1.538-15.683c0-7.652,0-15.307,0-22.959
	c0-24.119,0-48.239,0-72.361c0-22.333,0-44.666,0-66.999c0-5.417,0-10.835,0-16.253c0-10.996,6.066-20.281,16.853-23.293
	c3.438-0.96,6.851-0.784,10.396-0.784c5.494,0,10.987,0,16.48,0c19.362,0,38.724,0,58.086,0c49.934,0,99.868,0,149.801,0
	c17.832,0,35.665,0,53.499,0c4.347,0,8.694,0,13.039,0c8.01,0,14.359,2.613,19.682,8.881c4.506,5.304,4.164,12.007,4.164,18.504
	C-1413,120.469-1413,127.553-1413,134.636z"/>
<path fill="#FFC900" d="M-1761.356,286c0,0,48.61,0,73.188,0c49.883,0,99.767,0,149.65,0c39.42,0,78.841,0,118.263,0
	c4.833,0,8.256,0,12.256,0c10,0,10-13,0-13c-23,0-46.908,0-71.485,0c-49.884,0-99.769,0-149.651,0c-39.421,0-78.842,0-118.263,0
	c-4.833,0-9.264,0-13.958,0c-7.826,0-8.609,13-0.783,13C-1762.14,286-1769.183,286-1761.356,286z"/>
<path fill="#FFC900" d="M-1641,367c0,0,74.301,0,111.736,0c1.059,0,1.264,0,2.264,0c9,0,9-11,0-11c-37,0-73.956,0-111.393,0
	c-1.058,0-2.607,0-2.607,0C-1649,356-1649,367-1641,367C-1641,367-1649,367-1641,367z"/>
<path fill="#FFC900" d="M-1578,362c0,0,0-23,0-38c0-7-12-7-12,0c0,15,0,25,0,38C-1590,369-1578,369-1578,362
	C-1578,362-1578,369-1578,362z"/>
<path fill="#FFC900" d="M-1466.661,116.336c-3.151-1.846-6.58-0.52-8.564,2.246c-20.44,28.492-40.88,56.986-61.32,85.477
	c-11.163-7.791-22.326-15.582-33.491-23.373c-2.439-1.702-5.531-0.569-7.587,1.133c-12.719,10.531-25.437,20.712-38.157,31.578
	c-10.479-11.824-20.957-23.524-31.437-35.229c-2.956-3.302-7.539-1.816-9.833,1.19c-15.396,20.173-30.792,40.306-46.189,60.478
	c-2.075,2.722-0.427,6.982,2.246,8.548c3.218,1.885,6.5,0.442,8.566-2.265c13.713-17.97,27.428-35.938,41.143-53.906
	c10.161,11.351,20.323,22.703,30.484,34.053c2.43,2.714,6.344,2.079,8.853,0c13.022-10.782,26.045-21.562,39.067-32.345
	c11.55,8.061,23.1,16.123,34.648,24.184c2.988,2.084,6.707,0.345,8.566-2.246c21.448-29.897,42.895-59.794,64.343-89.691
	c0.302-0.423,0.604-0.844,0.908-1.267C-1462.422,122.124-1463.924,117.94-1466.661,116.336z"/>
<path fill="#FFC900" d="M219,276c0,0,0,48,0,74c0,7,12,7,12,0c0-26,0-49,0-74C231,267,219,267,219,276C219,276,219,267,219,276z"/>
<path fill="#FFC900" d="M286.086,344.631c-19.078-15.651-38.161-31.305-57.242-46.959c-2.843-2.329-6.015-2.336-8.855,0
	c-19.027,15.654-38.054,31.308-57.08,46.959c-6.241,5.135,2.669,13.751,8.852,8.666c17.555-14.44,35.108-29.036,52.661-43.501
	c17.606,14.465,35.21,29.061,52.814,43.501C283.422,358.373,292.336,349.756,286.086,344.631z"/>
<path fill="#FFC900" d="M162,260c0,0,74.723,0,112.088,0c19.186,0,38.372,0,57.56,0c7.111,0,13.39-0.308,20.128-3.266
	C363.727,251.487,370,238.789,370,226.214c0-40.827,0-81.653,0-122.479C370,85.133,370,67,370,50c0-10-12-10-12,0
	c0,35,0,71.969,0,108.989c0,20.041,0,40.082,0,60.122c0,4.27,0.361,9.096-0.592,13.278C355.052,242.759,345.475,248,335.572,248
	c-41.835,0-83.669,0-125.504,0c-16.024,0-31.068,0-48.068,0C154,248,154,260,162,260C162,260,154,260,162,260z"/>
<path fill="#FFC900" d="M137,54c0,0,64.102,0,95.936,0c44.921,0,89.842,0,134.765,0c4.774,0,9.3,0,15.3,0c7,0,7-12,0-12
	c-32,0-64.643,0-96.478,0c-44.92,0-89.842,0-134.764,0C146.983,42,141,42,137,42C130,42,130,54,137,54C137,54,130,54,137,54z"/>
<path fill="#FFC900" d="M142.273,158.593C139.947,142.453,125.216,132,109.695,132c-9.948,0-19.896,0-29.845,0
	c-9.757,0-19.516,0-29.273,0c-16.274,0-31.42,11.234-33.811,27.699C15.725,166.877,16,174.27,16,181.493c0,12.502,0,25.005,0,37.507
	c0,7.479,0,14.958,0,22.438c0,16.056,13,28.972,27,32.091C43,299.893,43,325,43,353c0,9,13,9,13,0c0-30,0-56.765,0-85.015
	c0-3.464-2.879-6.191-6.289-6.261c-8.293-0.165-14.713-4.664-18.408-12.024C29.635,246.38,30,242.699,30,239.093
	c0-9.948,0-19.896,0-29.845c0-11.853,0-23.705,0-35.558c0-9.089-0.871-16.977,6.414-23.893C43.412,143.155,53.382,145,62.215,145
	c12.23,0,24.462,0,36.694,0c9.353,0,19.261-1.565,26.663,5.479c6.865,6.536,6.428,15.024,6.428,23.586c0,17.738,0,35.476,0,53.214
	c0,4.719,0,9.439,0,14.159c0,11.362-9.883,20.062-21.064,20.285c-3.414,0.069-6.936,2.797-6.936,6.261c0,28.25,0,55.015,0,85.015
	c0,9,12,9,12,0c0,0,0-49.947,0-79.464c17-3.108,26-16.043,26-32.097c0-7.638,0-15.275,0-22.913c0-12.423,0-24.846,0-37.271
	C142,173.689,143.354,166.104,142.273,158.593z"/>
<path fill="#FFC900" d="M121.757,76.132c0.004-0.261-0.006-0.511-0.028-0.756c-0.623-18.66-13.458-34.854-31.777-39.193
	c-18.462-4.374-38.046,5.299-46.17,22.321c-8.346,17.488-2.95,38.62,12.335,50.317c15.427,11.806,36.599,10.378,51.366-1.627
	c8.992-7.31,13.856-18.859,14.241-30.272C121.749,76.667,121.761,76.405,121.757,76.132z M80.768,104.601
	c-15.725,0.245-28.229-13.116-28.469-28.469c-0.245-15.723,13.115-28.229,28.469-28.468c15.722-0.245,28.229,13.115,28.469,28.468
	C108.992,91.854,96.489,104.356,80.768,104.601z"/>
</svg>
