<?xml version="1.0" encoding="utf-8"?>
<!-- Generator: Adobe Illustrator 16.0.0, SVG Export Plug-In . SVG Version: 6.00 Build 0)  -->
<!DOCTYPE svg PUBLIC "-//W3C//DTD SVG 1.1//EN" "http://www.w3.org/Graphics/SVG/1.1/DTD/svg11.dtd">
<svg version="1.1" id="Layer_1" xmlns="http://www.w3.org/2000/svg" xmlns:xlink="http://www.w3.org/1999/xlink" x="0px" y="0px"
	 width="400px" height="400px" viewBox="0 0 400 400" enable-background="new 0 0 400 400" xml:space="preserve">
<path fill="#FFC900" d="M272.982,134.762c-2.947-27.075-15.129-52.308-34.277-71.648c-27.035-26.768-64.67-38.809-102.225-33.641
	c-37.454,5.155-70.837,29.614-88.293,62.932c-17.334,33.079-17.559,72.785-1.944,106.495c15.884,34.293,48.987,59.29,85.986,66.182
	c37.054,6.9,75.396-4.396,103.152-29.761C263.02,210.065,277.022,171.874,272.982,134.762z M258.739,170.488
	c-7.762,35.951-34.514,66.004-69.186,78.152c-33.737,11.818-72.475,5.699-100.749-16.268C59.611,209.69,44.426,173.568,47.72,136.9
	c3.294-36.688,26.876-69.162,59.546-85.473c31.99-15.971,71-13.805,101.618,4.204c7.687,4.522,14.638,10.068,20.969,16.336
	C255.39,97.76,266.407,134.962,258.739,170.488z"/>
<path fill="#FFC900" d="M376.926,338.011c-0.677-2.923-2.83-5.041-4.859-7.072c-13.538-13.544-27.073-27.088-40.608-40.631
	c-17.927-17.936-35.851-35.868-53.774-53.802c-2.412-2.413-6.442-2.411-8.853,0c-9.034,9.031-18.064,18.064-27.098,27.098
	c-2.415,2.413-2.41,6.439,0,8.854c27.55,27.597,55.1,55.192,82.65,82.79c4.172,4.18,8.345,8.359,12.519,12.538
	c0.222,0.258,0.465,0.511,0.75,0.755c0.495,0.493,1.013,0.873,1.541,1.16c6.261,4.245,13.042,2.575,18.415-2.8
	c4.136-4.137,8.271-8.272,12.408-12.407C374.723,349.784,378.621,345.327,376.926,338.011z M357.062,349.778
	c-1.062,1.062-9.579,10.465-10.529,9.938c-0.01-0.013-0.018-0.021-0.027-0.029c-27.55-27.598-55.126-55.194-82.677-82.792
	c-2.949-2.954-5.795-5.91-8.752-8.864c6.167-6.069,12.114-12.134,18.118-18.011c26.113,25.967,52.229,52.121,78.342,78.25
	c4.414,4.415,8.828,8.753,13.242,13.168C365.503,342.161,357.951,348.892,357.062,349.778z"/>
<path fill="#FFC900" d="M264.318,250.267c-8.768-8.768-17.535-17.536-26.303-26.305c-5.714-5.714-14.567,3.141-8.854,8.854
	c8.768,8.768,17.536,17.536,26.304,26.305C261.18,264.834,270.032,255.98,264.318,250.267L264.318,250.267z"/>
<path fill="#FFC900" d="M194,96c0,0,0,71.119,0,106.602c0,0.064,0-0.602,0-0.602c0,9,13,9,13,0c0-35,0-70.176,0-105.658
	c0-0.062,0-0.342,0-0.342C207,89,194,89,194,96C194,96,194,89,194,96z"/>
<path fill="#FFC900" d="M162,145c0,0,0,38,0,57c0,9,13,9,13,0c0-19,0-38,0-57C175,136,162,136,162,145C162,145,162,136,162,145z"/>
<path fill="#FFC900" d="M130,129c0,0,0,49,0,73c0,9,12,9,12,0c0-24,0-50,0-73C142,119,130,119,130,129C130,129,130,119,130,129z"/>
<path fill="#FFC900" d="M98,166c0,0,0,25,0,36c0,9,13,9,13,0c0-11,0-24,0-36C111,158,98,158,98,166C98,166,98,158,98,166z"/>
<path fill="#FFC900" d="M-514,266.214c0-20.29,0-40.582,0-60.873c0-38.468,0-76.937,0-115.406c0-16.048-11.147-29.684-26.506-33.967
	c-4.466-1.244-9.282-0.967-13.851-0.967c-13.797,0-27.595,0-41.394,0c-48.741,0-97.482,0-146.223,0c-34.474,0-68.949,0-103.422,0
	c-8.253,0-16.597,1.551-23.427,6.458C-878.705,68.561-884,79.412-884,91.391c0,15.703,0,31.405,0,47.109
	c0,43.917,0,87.837,0,131.753c0,6.414,0.444,13.107,2.938,19.213c5.496,13.455,19.098,22.533,33.59,22.533c9.81,0,19.62,0,29.428,0
	c46.511,0,93.022,0,139.533,0c39.883,0,79.767,0,119.65,0c3.052,0,6.482,0,8.83,0c1.051,0,1.97-0.484,2.765-0.811
	c18.167-1.525,32.675-16.346,33.018-34.934C-514.188,272.959-514,269.511-514,266.214z M-528,115.636c0,23.718,0,47.436,0,71.153
	c0,22.904,0,45.81,0,68.713c0,6.069,0,12.138,0,18.205c0,9.308-2.938,17.312-11.354,22.1c-3.301,1.879-6.838,2.688-10.6,2.754
	c-0.792,0.015-1.337,0.438-1.974,0.438c-26.795,0-54.331,0-81.641,0c-49.876,0-99.752,0-149.628,0c-17.227,0-34.454,0-51.681,0
	c-3.898,0-7.795,0-11.693,0c-9.706,0-17.525-4.854-21.893-13.668c-2.337-4.721-1.538-10.56-1.538-15.683c0-7.652,0-15.307,0-22.959
	c0-24.119,0-48.24,0-72.361c0-22.333,0-44.666,0-66.999c0-5.417,0-10.835,0-16.253c0-10.996,6.066-20.281,16.853-23.293
	c3.438-0.96,6.851-0.784,10.396-0.784c5.494,0,10.987,0,16.48,0c19.362,0,38.724,0,58.086,0c49.934,0,99.868,0,149.801,0
	c17.832,0,35.665,0,53.499,0c4.347,0,8.694,0,13.039,0c8.01,0,14.359,2.613,19.682,8.881c4.506,5.304,4.164,12.007,4.164,18.504
	C-528,101.469-528,108.553-528,115.636z"/>
<path fill="#FFC900" d="M-876.356,267c0,0,48.61,0,73.188,0c49.883,0,99.767,0,149.65,0c39.42,0,78.841,0,118.263,0
	c4.833,0,8.256,0,12.256,0c10,0,10-13,0-13c-23,0-46.908,0-71.485,0c-49.884,0-99.769,0-149.651,0c-39.421,0-78.842,0-118.263,0
	c-4.833,0-9.264,0-13.958,0c-7.826,0-8.609,13-0.783,13C-877.14,267-884.183,267-876.356,267z"/>
<path fill="#FFC900" d="M-756,348c0,0,74.301,0,111.736,0c1.059,0,1.264,0,2.264,0c9,0,9-11,0-11c-37,0-73.956,0-111.393,0
	c-1.058,0-2.607,0-2.607,0C-764,337-764,348-756,348C-756,348-764,348-756,348z"/>
<path fill="#FFC900" d="M-693,343c0,0,0-23,0-38c0-7-12-7-12,0c0,15,0,25,0,38C-705,350-693,350-693,343C-693,343-693,350-693,343z"
	/>
<path fill="#FFC900" d="M-581.661,97.336c-3.151-1.846-6.58-0.52-8.564,2.246c-20.44,28.492-40.88,56.986-61.32,85.477
	c-11.163-7.791-22.326-15.582-33.491-23.373c-2.439-1.702-5.531-0.569-7.587,1.133c-12.719,10.531-25.437,20.712-38.157,31.578
	c-10.479-11.824-20.957-23.524-31.437-35.229c-2.956-3.302-7.539-1.816-9.833,1.19c-15.396,20.173-30.792,40.306-46.189,60.478
	c-2.075,2.722-0.427,6.982,2.246,8.548c3.218,1.885,6.5,0.442,8.566-2.265c13.713-17.97,27.428-35.937,41.143-53.906
	c10.161,11.351,20.323,22.703,30.484,34.053c2.43,2.714,6.344,2.079,8.853,0c13.022-10.782,26.045-21.562,39.067-32.345
	c11.55,8.061,23.1,16.123,34.648,24.184c2.988,2.083,6.707,0.344,8.566-2.247c21.448-29.897,42.895-59.794,64.343-89.691
	c0.302-0.423,0.604-0.844,0.908-1.267C-577.422,103.124-578.924,98.94-581.661,97.336z"/>
<path fill="#FFC900" d="M1104,257c0,0,0,48,0,74c0,7,12,7,12,0c0-26,0-49,0-74C1116,248,1104,248,1104,257
	C1104,257,1104,248,1104,257z"/>
<path fill="#FFC900" d="M1171.086,325.631c-19.078-15.651-38.161-31.305-57.242-46.959c-2.843-2.329-6.015-2.336-8.855,0
	c-19.027,15.654-38.054,31.308-57.08,46.959c-6.241,5.135,2.669,13.751,8.852,8.666c17.555-14.44,35.108-29.036,52.661-43.501
	c17.606,14.465,35.21,29.061,52.814,43.501C1168.422,339.373,1177.336,330.756,1171.086,325.631z"/>
<path fill="#FFC900" d="M1047,241c0,0,74.723,0,112.088,0c19.186,0,38.372,0,57.56,0c7.111,0,13.39-0.308,20.128-3.266
	c11.951-5.247,18.225-17.945,18.225-30.521c0-40.827,0-81.653,0-122.479c0-18.602,0-36.735,0-53.735c0-10-12-10-12,0
	c0,35,0,71.969,0,108.989c0,20.041,0,40.082,0,60.122c0,4.27,0.361,9.096-0.592,13.278c-2.356,10.37-11.934,15.611-21.836,15.611
	c-41.835,0-83.669,0-125.504,0c-16.024,0-31.068,0-48.068,0C1039,229,1039,241,1047,241C1047,241,1039,241,1047,241z"/>
<path fill="#FFC900" d="M1022,35c0,0,64.102,0,95.936,0c44.921,0,89.842,0,134.765,0c4.774,0,9.3,0,15.3,0c7,0,7-12,0-12
	c-32,0-64.643,0-96.478,0c-44.92,0-89.842,0-134.764,0c-4.775,0-10.759,0-14.759,0C1015,23,1015,35,1022,35C1022,35,1015,35,1022,35
	z"/>
<path fill="#FFC900" d="M1027.273,139.593c-2.326-16.141-17.058-26.593-32.578-26.593c-9.948,0-19.896,0-29.845,0
	c-9.757,0-19.516,0-29.273,0c-16.274,0-31.42,11.234-33.811,27.699c-1.042,7.179-0.767,14.571-0.767,21.794
	c0,12.502,0,25.005,0,37.507c0,7.479,0,14.958,0,22.438c0,16.056,13,28.972,27,32.091c0,26.364,0,51.472,0,79.472c0,9,13,9,13,0
	c0-30,0-56.765,0-85.015c0-3.464-2.879-6.191-6.289-6.261c-8.293-0.165-14.713-4.664-18.408-12.024
	c-1.668-3.32-1.303-7.001-1.303-10.607c0-9.948,0-19.896,0-29.845c0-11.853,0-23.705,0-35.558c0-9.089-0.871-16.977,6.414-23.893
	c6.998-6.643,16.968-4.798,25.801-4.798c12.23,0,24.462,0,36.694,0c9.353,0,19.261-1.565,26.663,5.479
	c6.865,6.536,6.428,15.024,6.428,23.586c0,17.738,0,35.476,0,53.214c0,4.719,0,9.439,0,14.159c0,11.362-9.883,20.062-21.064,20.285
	c-3.414,0.069-6.936,2.797-6.936,6.261c0,28.25,0,55.015,0,85.015c0,9,12,9,12,0c0,0,0-49.947,0-79.464
	c17-3.108,26-16.043,26-32.097c0-7.638,0-15.275,0-22.913c0-12.423,0-24.846,0-37.271
	C1027,154.689,1028.354,147.104,1027.273,139.593z"/>
<path fill="#FFC900" d="M1006.757,57.132c0.004-0.261-0.006-0.511-0.028-0.756c-0.623-18.66-13.458-34.854-31.777-39.193
	c-18.462-4.374-38.046,5.299-46.17,22.321c-8.346,17.488-2.95,38.62,12.335,50.317c15.427,11.806,36.599,10.378,51.366-1.627
	c8.992-7.31,13.856-18.859,14.241-30.272C1006.749,57.667,1006.761,57.405,1006.757,57.132z M965.768,85.601
	c-15.725,0.245-28.229-13.116-28.469-28.469c-0.245-15.723,13.115-28.229,28.469-28.468c15.722-0.245,28.229,13.115,28.469,28.468
	C993.992,72.854,981.489,85.356,965.768,85.601z"/>
</svg>
